Patient4_TMGait_0pt6_01_right_15_EMG.mot
version=1
nRows=30
nColumns=33
inDegrees=no
endheader
time	1LAddLong	2LGlutMax	3LGlutMed	4LIliopsoas	5LSemiMemb	6LBicFemLong	7LRecFem	8LVastMed	9LVastLat	10LGasMed	11LTibAnt	12lTibPost	13LPeroneusLong	14LSol	15LExtDigLong	16LFlexDigLong	17RAddLong	18RGlutMax	19RGlutMed	20RIliopsoas	21RSemiMemb	22RBicFemLong	23RRecFem	24RVastMed	25RVastLat	26RGasMed	27RTibAnt	28RTibPost	29RPeroneusLong	30RSol	31RExtDigLong	32RFlexDigLong
18.495	-0.006409	-0.020294	0.057983	-0.007629	-0.058289	-0.004578	0.06485	0.024872	0.085297	0.014496	0.001526	0.007477	-0.10635	0.0354	-0.007782	-0.008392	0.026703	-0.25665	-0.19943	0.036926	-0.095673	0.19089	-0.079346	0.010223	0.054779	0.042267	0.016022	-0.007324	-0.17334	-0.11276	-0.003815	-0.027008
18.496	-0.005035	-0.001678	0.077972	0.012817	-0.06546	0.062103	0.080719	0.013733	0.14969	0.00824	-0.011597	0.008392	-0.031128	0.005951	-0.005035	0.001068	0.058899	-0.31876	-0.23224	0.023804	0.092468	-0.045624	-0.16693	-0.003052	0.006104	0.022125	-0.3186	-0.019073	-0.17975	-0.36682	-0.005646	-0.029602
18.497	0.002289	0.032806	0.086975	0.017853	-0.039978	0.093536	0.073853	0.007935	0.17593	0.016632	0.002136	0.007172	-0.010376	0.026245	0.01709	0.007782	0.065918	-0.28214	-0.18524	0.054932	0.067749	-0.10346	-0.1796	-0.01358	0.02533	0.031128	-0.11826	-0.031128	-0.14801	-0.49469	-0.00885	-0.032043
18.498	0.007782	0.070343	0.088806	0.016327	0.058289	0.071564	0.10788	0.020752	0.19348	0.034027	0.00824	-0.002289	0.021057	0.037842	0.035553	0.005951	0.097046	-0.20844	0.011444	0.091248	0.076752	-0.159	-0.16342	-0.034332	0.049286	0.057678	0.002594	-0.042267	-0.25864	-0.25207	-0.00824	-0.031433
18.499	0.005341	0.16129	0.087891	0.006409	0.039978	0.081329	0.11108	-0.007019	0.15579	0.019073	0.006256	0.010223	-0.040588	0.039825	0.030975	0.003204	0.10574	-0.19592	0.15503	0.027313	0.061798	-0.14755	-0.12558	-0.05661	0.028992	0.055847	-0.065613	-0.068359	0.022888	0.31693	-0.009155	-0.02594
18.5	-0.006866	0.1294	0.060883	0.004578	-0.038452	0.069427	0.065765	0.006256	0.04715	0.010986	0.012665	0.009918	-0.068512	0.031433	-0.000305	0.002747	0.061798	-0.24063	0.04303	-0.025177	0.14618	-0.048523	-0.031281	-0.062408	0.02243	0.039673	-0.36423	-0.053558	0.2887	0.50522	-0.006104	-0.019989
18.501	-0.005035	0.15854	0.046539	-0.006409	-0.085144	0.068665	0.026093	0.013428	-0.035553	-0.002289	0.006409	0.007782	0.033875	0.038605	-0.009308	0.006561	-0.048523	-0.13931	-0.14786	-0.006256	-0.066223	-0.036163	0.010986	-0.072327	-0.039063	-0.0177	-0.3775	-0.06546	0.29037	0.42633	-0.010376	-0.011597
18.502	-0.003662	0.099945	0.036774	0.023804	-0.14526	0.084686	0.086517	0.006561	-0.11719	0.003204	0.003815	0.005188	-0.008392	0.027924	-0.017853	0.0177	-0.11566	-0.12192	-0.30487	0.046844	-0.65781	0.14191	0.033264	-0.055542	-0.068207	-0.016022	-0.26672	-0.076141	0.24307	0.18707	-0.007019	-0.014801
18.503	-0.000153	0.07019	0.004272	0.025482	-0.10437	0.092926	0.092163	0.007782	-0.13519	0.032959	0.012207	0.003662	-0.035858	-0.026093	-0.014801	0.011444	-0.038757	-0.14938	0.06546	0.007477	-0.28305	0.12299	-0.028687	-0.10635	-0.083923	-0.006256	-0.121	0.002899	0.22827	-0.072632	-0.00824	-0.012817
18.504	0.015106	0.01297	-0.015717	0.025177	-0.006409	-0.00473	0.12741	0.003967	-0.11444	0.043793	0.01358	0.0177	0.015411	-0.009308	-0.012512	-0.001678	-0.038452	-0.18173	-0.049438	-0.035706	0.23163	0.13046	0.002899	0.02533	-0.023956	-0.009155	0.022888	0.014801	0.18768	0.014648	-0.005188	-0.011597
18.505	-0.007477	-0.037689	-0.022888	0.02655	0.037842	-0.019073	0.11307	0.025787	-0.045166	0.071259	0.003967	0.007935	0.05127	0.054779	0	0.014648	-0.027466	-0.13412	0.29526	-0.088348	0.26871	0.099182	0.13229	-0.001068	-0.067902	-0.033417	0.15457	0.007477	0.21652	-0.037842	-0.007172	-0.009155
18.506	-0.036774	-0.030518	0.011749	0.013885	0.075531	0.017548	0.097351	0.027924	0.035095	0.076599	-0.003204	0.016022	-0.12451	0.1001	0.02243	-0.001526	-0.0177	-0.14038	0.083618	-0.015411	0.043182	0.17441	-0.024261	-0.043488	-0.094299	-0.042572	0.19272	-0.03418	0.091095	-0.036163	-0.004272	-0.006714
18.507	-0.045319	-0.00412	0.008087	0.012817	0.048523	0.1001	0.081635	0.014496	0.054932	0.070801	0.001984	0.015259	-0.022888	0.082703	0.007324	0.014496	-0.036163	-0.089264	0.02243	0.048676	-0.079498	0.16052	-0.099487	-0.044403	-0.054779	-0.045471	0.17746	-0.0383	0.1062	0.05188	-0.007935	-0.019226
18.508	-0.055542	-0.000153	0.00351	0.000763	-0.055542	0.098419	0.099182	0.02533	0.025482	0.067444	0.000305	0.013733	0.013275	0.10895	-0.008545	-0.005951	-0.024719	-0.065308	-0.093689	0.071411	-0.13855	0.06546	-0.26093	-0.008545	0.007477	-0.025024	0.14389	0.006409	0.066528	0.076141	-0.006561	-0.02594
18.509	-0.023346	-0.008392	-0.002899	0.00351	-0.1152	0.071106	0.06012	0.001068	-0.030365	0.061188	-0.012207	0.019379	-0.21576	-0.059662	-0.024261	-0.002899	-0.021057	-0.080261	-0.22827	0.029602	0.1358	-0.10254	-0.6163	-0.10452	0.079956	-0.012665	0.001678	-0.011292	0.085449	0.17532	-0.005798	-0.027008
18.51	0.000763	0.02655	0.010529	-0.00061	-0.046387	-0.097046	0.035553	0.000458	-0.033417	0.072327	0.03067	0.023193	0.19928	-0.1944	-0.057373	-0.01236	0	-0.00473	-0.068207	-0.026703	0.12054	-0.03891	-0.58121	0.036163	0.093689	-0.007629	0.056305	-0.01236	0.12497	0.42191	-0.004883	-0.023041
18.511	0.02655	0.05249	-0.009155	-0.003357	0.012054	-0.26169	0.045624	-0.000763	-0.10498	0.051422	0.031891	0.014496	0.32837	-0.13153	-0.031128	-0.013733	0	-0.051575	0.038147	-0.07431	-0.27725	0.1471	-0.33432	0.24857	0.08728	-0.012512	0.037689	-0.011902	0.17014	0.60379	-0.006104	-0.02594
18.512	0.036774	0.079498	-0.000153	0.018768	0.037994	-0.25589	0.058746	-0.0177	-0.10315	0.040894	0.035706	0.021515	0.31387	-0.046234	0.008392	-0.021057	-0.01297	0.021515	-0.11658	-0.068054	-0.30365	0.24551	-0.34988	0.28122	0.098419	-0.009003	-0.082855	-0.006561	0.24124	0.15472	-0.005341	-0.029602
18.513	0.02243	0.09964	-0.001068	0.028687	0.020294	-0.12207	0.085297	-0.001678	-0.11993	0.036926	0.032806	0.015411	0.31479	-0.03067	0.0177	-0.013733	-0.010376	-0.10483	-0.073547	0.018158	0.1004	0.18433	-0.25055	0.15396	0.074005	0.010223	-0.038147	-0.001221	0.027924	-0.3215	-0.006256	-0.024872
18.514	0.026093	0.093536	-0.019531	0.010681	0.000305	0.068665	0.09201	-0.001678	-0.055389	0.059509	-0.010681	0.021362	0.30731	0.003967	0.003815	0.008698	0.028229	-0.074158	-0.2063	0.062714	0.07782	0.17639	-0.23438	0.03006	0.10147	0.001221	-0.032043	-0.01236	-0.55069	-0.33966	-0.007629	-0.023041
18.515	0.026093	0.22079	-0.024414	0.018311	0.033875	0.14572	0.095062	0.000458	-0.018311	0.06424	-0.072632	0.022278	0.20447	0.11078	-0.008545	-0.005646	0.035706	-0.085144	-0.23315	0.020294	0.090485	0.20691	-0.32913	0.034485	0.12817	0.016632	-0.011292	-0.030212	-0.59494	-0.67307	-0.009155	-0.026398
18.516	0.026398	0.23727	-0.023804	0.032349	0.061035	0.028229	0.097046	0.005646	-0.0354	0.018158	-0.10544	0.018616	-0.009918	0.25909	0.002594	0.00061	0.072327	-0.10391	-0.12314	0.001984	0.048523	0.04364	-0.2214	-0.048065	0.074158	0.032501	-0.020142	-0.035706	-0.44495	-0.55862	-0.005188	-0.023956
18.517	0.018005	0.25513	0.008087	0.009918	0.030975	-0.072632	0.11124	-0.001526	-0.063782	0.014954	-0.092773	0.023346	-0.33447	0.26398	0.002136	0.009766	0.075378	-0.069885	-0.064392	-0.036163	-0.059814	-0.12131	-0.18616	-0.043488	0.079346	0.00946	0.097504	-0.033417	-0.83603	-0.55237	-0.006256	-0.030823
18.518	0.018921	0.30991	0.05127	0.002441	-0.033417	0.16083	0.11978	0.006714	-0.041046	0.068207	-0.029907	0.035248	0.1059	0.27374	0.003815	-0.006714	0.07019	0.016937	-0.15213	-0.087128	-0.017853	-0.18997	-0.17212	-0.11353	0.049133	0.019379	0.095978	-0.017548	-0.68726	-0.32303	-0.012207	-0.031738
18.519	0.021057	0.36865	0.025635	-0.001831	-0.059357	0.36957	0.097656	0.015717	-0.044708	0.063934	0.017548	0.022888	0.076294	0.22247	0.021515	-0.01297	0.061188	0.02533	-0.33371	-0.16754	0.00946	-0.022583	-0.14862	-0.14435	0.033112	0.044861	-0.041962	0.026398	-0.16388	-0.40802	-0.007782	-0.029144
18.52	0.006256	0.36667	0.026093	0.003967	-0.037079	0.2742	0.13412	0.003662	-0.047913	0.010986	0.080414	0.030518	0.005035	0.23636	0.015106	-0.028839	0.009613	-0.078735	-0.24155	-0.14511	-0.085144	0.03006	-0.17868	-0.032349	0.026245	-0.011139	-0.091248	0.068207	-0.071564	-0.40024	-0.009613	-0.026398
18.521	0.016174	0.36987	0.001984	0.053558	-0.007324	0.19775	0.18738	0.01297	-0.10681	-0.076141	0.092468	0.033569	0.012817	0.35889	0.052795	-0.018768	0.019836	-0.12817	-0.22705	0.009155	-0.037384	0.04776	-0.12802	-0.048981	0.023956	-0.13046	-0.005951	-0.003967	-0.17853	0.080719	-0.005188	-0.031586
18.522	0.002136	0.41534	0.011597	0.018311	-0.014191	0.061646	0.1976	0.013123	-0.14404	-0.038757	0.046234	0.031433	0.47104	0.35172	-0.001221	-0.034332	0.01236	-0.13245	-0.3067	0.14755	-0.21255	0.13123	-0.12817	0.046539	0.025177	-0.19699	0.056458	-0.25299	-0.058441	0.62317	-0.007477	-0.032196
18.523	0.001221	0.38132	0.023041	0.028381	-0.024109	-0.32196	0.18951	0.017395	-0.23773	0.002136	0.034637	0.026398	0.2533	0.20554	-0.083923	-0.025482	-0.013885	-0.17136	-0.34058	0.23148	-0.31769	0.1326	-0.12665	0.04776	0.005341	-0.16693	0.053864	-0.40756	0.34073	0.49469	-0.006714	-0.041199
18.524	0.010223	0.31754	0.037079	0.039063	-0.057068	-0.39459	0.1265	0.018005	-0.19455	-0.00351	0.024872	0.034332	-0.52765	0.27527	-0.02182	-0.027008	0.005341	-0.09552	-0.33218	0.22705	-0.21378	0.12329	-0.13458	0.040741	-0.012665	-0.093384	-0.039063	0.38208	0.37445	0.20065	-0.005493	-0.038757
